<svg width="16" height="16" viewBox="0 0 16 16" fill="none" xmlns="http://www.w3.org/2000/svg">
<path d="M11.3589 2.90333L13.0899 4.67443M12.4718 1.34305L7.78889 6.13432C7.54621 6.38098 7.38106 6.69619 7.31463 7.03953L6.88208 9.25487L9.0473 8.81147C9.38255 8.74287 9.69 8.57471 9.93203 8.32707L14.6149 3.5358C14.7556 3.39183 14.8672 3.2209 14.9434 3.03278C15.0196 2.84467 15.0588 2.64304 15.0588 2.43943C15.0588 2.23581 15.0196 2.03419 14.9434 1.84607C14.8672 1.65796 14.7556 1.48703 14.6149 1.34305C14.4742 1.19907 14.3071 1.08486 14.1233 1.00694C13.9394 0.929021 13.7423 0.888916 13.5433 0.888916C13.3443 0.888916 13.1473 0.929021 12.9634 1.00694C12.7795 1.08486 12.6125 1.19907 12.4718 1.34305Z" stroke="#333333" stroke-width="2" stroke-linecap="round" stroke-linejoin="round"/>
<path d="M13.4234 10.9281V13.4379C13.4234 13.8817 13.2511 14.3073 12.9444 14.6211C12.6378 14.9349 12.2218 15.1112 11.7881 15.1112H2.79357C2.35984 15.1112 1.94388 14.9349 1.63719 14.6211C1.3305 14.3073 1.1582 13.8817 1.1582 13.4379V4.23523C1.1582 3.79147 1.3305 3.36588 1.63719 3.05209C1.94388 2.7383 2.35984 2.56201 2.79357 2.56201H5.24661" stroke="#333333" stroke-width="2" stroke-linecap="round" stroke-linejoin="round"/>
</svg>
