<svg width="16" height="16" viewBox="0 0 16 16" fill="none" xmlns="http://www.w3.org/2000/svg">
<path d="M15.5714 0H0.428571C0.191878 0 0 0.201472 0 0.45V2.55C0 2.79853 0.191878 3 0.428571 3H15.5714C15.8081 3 16 2.79853 16 2.55V0.45C16 0.201472 15.8081 0 15.5714 0Z" fill="#333333"/>
<path d="M1 4L2.08427 15.1517C2.10688 15.3845 2.20832 15.6001 2.36902 15.7567C2.52972 15.9133 2.7383 16 2.95453 16H13.0455C13.2617 16 13.4703 15.9133 13.631 15.7567C13.7917 15.6001 13.8931 15.3845 13.9157 15.1517L15 4H1ZM10.0417 12.5839L8 10.3734L5.95833 12.5839L5.0301 11.5789L7.07177 9.36842L5.0301 7.15789L5.95833 6.15289L8 8.36342L10.0417 6.15289L10.9699 7.15789L8.92823 9.36842L10.9699 11.5789L10.0417 12.5839Z" fill="#333333"/>
</svg>
