<svg width="33" height="33" viewBox="0 0 33 33" fill="none" xmlns="http://www.w3.org/2000/svg">
<path d="M10.7778 24C10.2889 24 9.87052 23.8261 9.52267 23.4782C9.17481 23.1304 9.00059 22.7117 9 22.2222V9.77778C9 9.28889 9.17422 8.87052 9.52267 8.52267C9.87111 8.17482 10.2895 8.0006 10.7778 8H17.4C17.6963 8 17.9224 8.12978 18.0782 8.38934C18.2341 8.64889 18.2524 8.92652 18.1333 9.22223C18.0593 9.45926 18 9.6963 17.9556 9.93334C17.9111 10.1704 17.8889 10.4148 17.8889 10.6667C17.8889 11.8963 18.3224 12.9446 19.1893 13.8116C20.0563 14.6785 21.1043 15.1117 22.3333 15.1111C22.5852 15.1111 22.8296 15.0889 23.0667 15.0444C23.3037 15 23.5407 14.9407 23.7778 14.8667C24.0741 14.763 24.352 14.7852 24.6116 14.9333C24.8711 15.0815 25.0006 15.3037 25 15.6V22.2222C25 22.7111 24.8261 23.1298 24.4782 23.4782C24.1304 23.8267 23.7117 24.0006 23.2222 24H10.7778ZM11.6667 20.4444H22.3333L19 16L16.3333 19.5556L14.3333 16.8889L11.6667 20.4444ZM22.3333 13.3333C22.0815 13.3333 21.8705 13.248 21.7004 13.0773C21.5304 12.9067 21.445 12.6957 21.4444 12.4444V11.5556H20.5556C20.3037 11.5556 20.0927 11.4702 19.9227 11.2996C19.7526 11.1289 19.6673 10.9179 19.6667 10.6667C19.6661 10.4154 19.7514 10.2044 19.9227 10.0338C20.0939 9.86311 20.3049 9.77778 20.5556 9.77778H21.4444V8.88889C21.4444 8.63704 21.5298 8.42608 21.7004 8.256C21.8711 8.08593 22.0821 8.0006 22.3333 8C22.5846 7.99941 22.7958 8.08474 22.9671 8.256C23.1384 8.42726 23.2234 8.63823 23.2222 8.88889V9.77778H24.1111C24.363 9.77778 24.5742 9.86311 24.7449 10.0338C24.9156 10.2044 25.0006 10.4154 25 10.6667C24.9994 10.9179 24.9141 11.1292 24.744 11.3004C24.5739 11.4717 24.363 11.5567 24.1111 11.5556H23.2222V12.4444C23.2222 12.6963 23.1369 12.9076 22.9662 13.0782C22.7956 13.2489 22.5846 13.3339 22.3333 13.3333Z" fill="#AAAAAA"/>
</svg>
