<svg width="33" height="33" viewBox="0 0 33 33" fill="none" xmlns="http://www.w3.org/2000/svg">
<path d="M15.5629 8.5C17.6944 8.5 19.293 8.76644 20.3588 9.38813C21.5134 10.0098 22.0462 11.0756 22.0462 12.5854C22.0462 13.4735 21.7798 14.2728 21.4245 14.8945C21.2232 15.1982 20.9616 15.4574 20.6561 15.656C20.3506 15.8545 20.0076 15.9884 19.6483 16.0491C20.156 16.1677 20.6376 16.3784 21.0693 16.6708C21.4246 16.9372 21.7798 17.3813 22.0462 17.8254C22.3242 18.4687 22.4459 19.1687 22.4015 19.8681C22.4329 20.5097 22.3125 21.1497 22.0502 21.7361C21.7879 22.3225 21.391 22.8387 20.8917 23.243C19.6274 24.1459 18.0903 24.5851 16.5398 24.4864H10.5894V8.5H15.5629ZM15.9181 14.8057C16.8951 14.8057 17.6056 14.7169 17.9608 14.3617C18.4049 14.0952 18.5825 13.5623 18.5825 13.0295C18.5825 12.4078 18.3161 11.9637 17.872 11.6973C17.428 11.4308 16.7175 11.2532 15.7405 11.2532H13.9643V14.8057H15.9181ZM13.9643 17.4701V21.822H16.1846C17.1615 21.822 17.9608 21.5555 18.3161 21.2003C18.7602 20.7562 18.9378 20.3121 18.9378 19.6016C18.9484 19.3332 18.8979 19.0658 18.7902 18.8197C18.6826 18.5735 18.5204 18.355 18.3161 18.1806C17.872 17.8254 17.1615 17.6477 16.0958 17.6477H13.8754L13.9643 17.4701Z" fill="#AAAAAA"/>
</svg>
