<svg width="33" height="33" viewBox="0 0 33 33" fill="none" xmlns="http://www.w3.org/2000/svg">
<path d="M11.5167 22.4072C11.2381 22.4073 10.9691 22.3052 10.7607 22.1203L5 16.9994L11.0806 11.5939C11.3073 11.4 11.601 11.3028 11.8985 11.3232C12.1961 11.3436 12.4738 11.48 12.6719 11.7029C12.87 11.9259 12.9726 12.2178 12.9578 12.5157C12.9429 12.8136 12.8118 13.0937 12.5925 13.2959L8.42683 16.9994L12.2726 20.4172C12.4454 20.5705 12.5675 20.7727 12.6226 20.997C12.6777 21.2213 12.6633 21.4571 12.5813 21.673C12.4993 21.889 12.3535 22.0748 12.1634 22.206C11.9732 22.3371 11.7477 22.4073 11.5167 22.4072ZM21.7004 22.4049L27.781 16.9994L22.0203 11.8785C21.7946 11.678 21.4985 11.5754 21.1971 11.5933C20.8958 11.6111 20.6138 11.7479 20.4133 11.9736C20.2128 12.1993 20.1102 12.4954 20.1281 12.7968C20.1459 13.0981 20.2827 13.3801 20.5084 13.5806L24.3542 16.9994L20.1885 20.7018C19.9626 20.9023 19.8257 21.1843 19.8077 21.4857C19.7898 21.7872 19.8924 22.0835 20.0929 22.3093C20.2933 22.5352 20.5753 22.6721 20.8768 22.6901C21.1783 22.708 21.4745 22.6054 21.7004 22.4049ZM16.3746 24.0182L18.6515 10.3564C18.6807 10.2071 18.6796 10.0534 18.6483 9.90457C18.617 9.7557 18.5563 9.6146 18.4696 9.4896C18.3829 9.36461 18.272 9.25826 18.1435 9.17683C18.015 9.0954 17.8715 9.04055 17.7215 9.01552C17.5714 8.99049 17.4179 8.99578 17.2699 9.03108C17.1219 9.06638 16.9825 9.13098 16.86 9.22106C16.7374 9.31114 16.6341 9.42487 16.5562 9.55554C16.4783 9.6862 16.4274 9.83115 16.4065 9.98183L14.1295 23.6436C14.1004 23.7929 14.1015 23.9466 14.1327 24.0954C14.164 24.2443 14.2248 24.3854 14.3115 24.5104C14.3982 24.6354 14.509 24.7417 14.6375 24.8232C14.766 24.9046 14.9095 24.9594 15.0596 24.9845C15.2096 25.0095 15.3632 25.0042 15.5111 24.9689C15.6591 24.9336 15.7985 24.869 15.9211 24.7789C16.0437 24.6889 16.1469 24.5751 16.2248 24.4445C16.3027 24.3138 16.3536 24.1688 16.3746 24.0182Z" fill="#AAAAAA"/>
</svg>
