<svg width="33" height="33" viewBox="0 0 33 33" fill="none" xmlns="http://www.w3.org/2000/svg">
<path d="M18.1906 15.0444L20.7054 17.5591C21.1135 17.9618 21.4379 18.4412 21.6599 18.9697C21.882 19.4982 21.9973 20.0654 21.9992 20.6387C22.0011 21.212 21.8896 21.78 21.6711 22.31C21.4526 22.84 21.1314 23.3215 20.7261 23.7269C20.3207 24.1322 19.8392 24.4534 19.3092 24.6719C18.7792 24.8904 18.2112 25.0019 17.6379 25C17.0647 24.9981 16.4974 24.8828 15.9689 24.6607C15.4404 24.4387 14.961 24.1143 14.5584 23.7062L13.7206 22.8685C13.6073 22.7592 13.517 22.6284 13.4548 22.4838C13.3926 22.3392 13.3598 22.1837 13.3584 22.0263C13.3569 21.8689 13.3868 21.7127 13.4464 21.567C13.5059 21.4213 13.5939 21.2889 13.7051 21.1775C13.8164 21.0662 13.9487 20.9781 14.0944 20.9184C14.24 20.8587 14.3961 20.8287 14.5535 20.83C14.7109 20.8313 14.8665 20.8639 15.0112 20.926C15.1558 20.988 15.2867 21.0783 15.3961 21.1914L16.2354 22.03C16.6065 22.3978 17.1083 22.6036 17.6308 22.6023C18.1533 22.6011 18.654 22.393 19.0235 22.0235C19.3929 21.6539 19.6009 21.1531 19.6019 20.6306C19.603 20.1081 19.3971 19.6064 19.0292 19.2354L16.5144 16.7206C16.2426 16.4487 15.8973 16.262 15.521 16.1834C15.1446 16.1048 14.7535 16.1377 14.3956 16.278C14.268 16.3286 14.1484 16.3803 14.0367 16.4329L13.67 16.6044C13.18 16.8257 12.8031 16.9206 12.3233 16.4416C11.6342 15.7525 11.8128 15.1163 12.6529 14.537C13.4898 13.9611 14.5019 13.6966 15.5135 13.7893C16.5251 13.8819 17.4723 14.326 18.1906 15.0444ZM13.4409 10.2946L14.2786 11.1323C14.4946 11.3558 14.6143 11.6552 14.6117 11.966C14.6092 12.2768 14.4846 12.5742 14.2649 12.7941C14.0452 13.014 13.748 13.1389 13.4371 13.1417C13.1263 13.1445 12.8268 13.0252 12.6031 12.8094L11.7646 11.9716C11.5824 11.7829 11.3644 11.6323 11.1234 11.5287C10.8824 11.4251 10.6231 11.3705 10.3608 11.3681C10.0984 11.3658 9.83825 11.4157 9.59541 11.515C9.35256 11.6142 9.13192 11.7609 8.94636 11.9463C8.76079 12.1318 8.61402 12.3524 8.51461 12.5951C8.4152 12.8379 8.36513 13.0981 8.36734 13.3604C8.36954 13.6228 8.42397 13.8821 8.52745 14.1231C8.63093 14.3642 8.78139 14.5823 8.97005 14.7646L11.4848 17.2794C11.7566 17.5513 12.1019 17.738 12.4782 17.8166C12.8546 17.8952 13.2457 17.8623 13.6037 17.722C13.7312 17.6714 13.8508 17.6197 13.9625 17.567L14.3292 17.3956C14.8192 17.1743 15.1969 17.0794 15.6759 17.5584C16.365 18.2475 16.1864 18.8837 15.3463 19.463C14.5094 20.0389 13.4973 20.3034 12.4857 20.2107C11.4741 20.1181 10.5269 19.674 9.80857 18.9556L7.29379 16.4409C6.88572 16.0382 6.56132 15.5588 6.33928 15.0303C6.11724 14.5018 6.00194 13.9346 6.00002 13.3613C5.9981 12.788 6.1096 12.22 6.32809 11.69C6.54659 11.16 6.86776 10.6785 7.27313 10.2731C7.67849 9.86776 8.16004 9.54659 8.69004 9.32809C9.22004 9.1096 9.78802 8.9981 10.3613 9.00002C10.9346 9.00194 11.5018 9.11724 12.0303 9.33928C12.5588 9.56132 13.0382 9.88651 13.4409 10.2946Z" fill="#AAAAAA"/>
</svg>
