<svg width="33" height="33" viewBox="0 0 33 33" fill="none" xmlns="http://www.w3.org/2000/svg">
<path d="M16.2224 20.3486C16.2224 19.502 16.0012 18.791 15.5586 18.2158C15.245 17.8194 14.8195 17.559 14.282 17.4346C13.7529 17.3114 13.2526 17.3028 12.8005 17.4076C12.6466 16.4937 12.8967 15.5259 13.5316 14.5004C14.1678 13.4755 14.9881 12.7049 15.9925 12.1886L14.4715 10C13.7019 10.381 12.9708 10.8639 12.2973 11.4479C11.6143 12.0318 11.0082 12.7033 10.4695 13.4624C9.93073 14.2214 9.52668 15.0786 9.26693 16.0502C9.00718 17.0219 8.93503 18.0128 9.05913 19.0325C9.22076 20.3794 9.65559 21.4568 10.3636 22.2553C11.0711 23.0641 11.9523 23.4684 13.0073 23.4684C13.9357 23.4684 14.7063 23.1895 15.3162 22.6238C15.9197 22.0697 16.2211 21.3103 16.2205 20.3457L16.2224 20.3486ZM25 20.3486C25 19.502 24.7787 18.791 24.3362 18.2158C24.0219 17.8117 23.5964 17.5497 23.0596 17.4298C22.5208 17.3111 22.027 17.3041 21.5781 17.4086C21.4241 16.5043 21.6646 15.5326 22.3015 14.5033C22.9364 13.4835 23.7561 12.7139 24.7605 12.1944L23.2433 10C22.4731 10.381 21.7483 10.8636 21.0691 11.4479C20.3799 12.0405 19.7678 12.7173 19.2471 13.4624C18.7122 14.2224 18.3139 15.0786 18.0541 16.0502C17.7903 17.0211 17.7194 18.0343 17.8454 19.0325C18.0051 20.3794 18.438 21.4568 19.1441 22.2553C19.8496 23.0583 20.7292 23.4598 21.783 23.4598C22.7129 23.4611 23.4832 23.1798 24.0938 22.6161C24.6973 22.062 24.9994 21.3026 25 20.338V20.3486Z" fill="#AAAAAA"/>
</svg>
