<svg width="32" height="31" viewBox="0 0 32 31" fill="none" xmlns="http://www.w3.org/2000/svg">
<path d="M18.2176 14.9667H24.5V17.1H20.1433C20.369 17.6494 20.4908 18.267 20.4908 18.9646C20.4908 20.3697 20.0429 21.4769 19.1469 22.2861C18.2528 23.0954 17.0074 23.5 15.4107 23.5C13.9405 23.5 12.6397 23.1878 11.5082 22.5635V19.4979C12.4382 19.9665 13.2252 20.2965 13.8693 20.4878C14.5134 20.6798 15.1028 20.7758 15.6373 20.7758C16.2789 20.7758 16.7707 20.6371 17.1126 20.3598C17.4557 20.0838 17.6273 19.6721 17.6273 19.1246C17.6273 18.8202 17.5517 18.5489 17.4006 18.3107C17.2168 18.0393 16.9916 17.8071 16.7357 17.6248C16.5657 17.4968 16.2805 17.3187 15.9046 17.1011H7.5V14.9678H18.2176V14.9667ZM14.8856 12.8334C14.8179 12.7566 14.7569 12.6726 14.7033 12.5827C14.58 12.354 14.518 12.0899 14.5248 11.8222C14.5248 11.3543 14.6724 10.9746 14.9677 10.683C15.2636 10.3915 15.688 10.246 16.2408 10.2468C16.7055 10.2468 17.1784 10.3143 17.6594 10.4494C18.1404 10.5838 18.7483 10.8217 19.4831 11.163L20.4257 8.5977C19.7649 8.2699 19.0829 7.99961 18.3857 7.78918C17.7158 7.59338 17.0263 7.49622 16.3343 7.50011C14.8761 7.50011 13.734 7.89407 12.9079 8.68197C12.0824 9.46917 11.6694 10.5515 11.6688 11.9289C11.6688 12.251 11.7028 12.5475 11.7519 12.8334H14.8856Z" fill="#AAAAAA"/>
</svg>
